<?xml version="1.0" encoding="utf-8"?>
<COLLADA xmlns="http://www.collada.org/2005/11/COLLADASchema" version="1.4.1" xmlns:xsi="http://www.w3.org/2001/XMLSchema-instance">
  <asset>
    <contributor>
      <author>Blender User</author>
      <authoring_tool>Blender 3.5.1 commit date:2023-04-24, commit time:18:11, hash:e1ccd9d4a1d3</authoring_tool>
    </contributor>
    <created>2023-07-07T16:11:17</created>
    <modified>2023-07-07T16:11:17</modified>
    <unit name="meter" meter="1"/>
    <up_axis>Z_UP</up_axis>
  </asset>
  <library_effects>
    <effect id="DEFAULT_MTL-effect">
      <profile_COMMON>
        <technique sid="common">
          <lambert>
            <emission>
              <color sid="emission">0 0 0 1</color>
            </emission>
            <diffuse>
              <color sid="diffuse">0.8 0.8 0.8 1</color>
            </diffuse>
            <index_of_refraction>
              <float sid="ior">1.45</float>
            </index_of_refraction>
          </lambert>
        </technique>
      </profile_COMMON>
    </effect>
  </library_effects>
  <library_images/>
  <library_materials>
    <material id="DEFAULT_MTL-material" name="DEFAULT_MTL">
      <instance_effect url="#DEFAULT_MTL-effect"/>
    </material>
  </library_materials>
  <library_geometries>
    <geometry id="imetro_finger_v2_m_col-mesh" name="imetro_finger_v2_m_col">
      <mesh>
        <source id="imetro_finger_v2_m_col-mesh-positions">
          <float_array id="imetro_finger_v2_m_col-mesh-positions-array" count="1056">0.01154094 0.005800962 0 0.01154094 0.005800962 0 0.01154094 0.005800962 0 -0.001884996 0.005800962 0 -0.001884996 0.005800962 0 -0.001884996 0.005800962 0 -0.001884996 -1.8e-4 0 -0.001884996 -1.8e-4 0 -0.001884996 -1.8e-4 0 -0.006746947 -0.007030963 0 -0.006746947 -0.007030963 0 -0.006746947 -0.007030963 0 -0.02099996 -0.007030963 0 -0.02099996 -0.007030963 0 -0.02099996 -0.007030963 0 -0.02099996 -0.01496899 0 -0.02099996 -0.01496899 0 -0.02099996 -0.01496899 0 0.007349967 -0.01496899 0 0.007349967 -0.01496899 0 0.007349967 -0.01496899 0 0.01154094 -0.01212495 0 0.01154094 -0.01212495 0 0.01154094 -0.01212495 0 0.001724958 -0.002762973 0.06984996 0.001724958 -0.002762973 0.06984996 0.001724958 -0.002762973 0.06984996 0.001724958 -0.002762973 0.06984996 0.002161979 -0.002619981 0.06984996 0.002161979 -0.002619981 0.06984996 0.002161979 -0.002619981 0.06984996 0.004329979 -0.001261949 0.06984996 0.004329979 -0.001261949 0.06984996 0.004329979 -0.001261949 0.06984996 0.005827963 9.93e-4 0.06984996 0.005827963 9.93e-4 0.06984996 0.005827963 9.93e-4 0.06984996 0.006277978 0.002910971 0.06984996 0.006277978 0.002910971 0.06984996 0.006277978 0.002910971 0.06984996 0.005827963 0.005488991 0.06984996 0.005827963 0.005488991 0.06984996 0.005827963 0.005488991 0.06984996 0.004329979 0.007743954 0.06984996 0.004329979 0.007743954 0.06984996 0.004329979 0.007743954 0.06984996 0.002142965 0.00910896 0.06984996 0.002142965 0.00910896 0.06984996 0.002142965 0.00910896 0.06984996 0.001740992 0.009240984 0.06984996 0.001740992 0.009240984 0.06984996 0.001740992 0.009240984 0.06984996 0.001740992 0.009240984 0.06984996 0.001394987 0.009722948 0.06984996 0.001394987 0.009722948 0.06984996 0.001394987 0.009722948 0.06984996 0.001306951 0.009832978 0.06984996 0.001306951 0.009832978 0.06984996 0.001306951 0.009832978 0.06984996 7.84e-4 0.010432 0.06984996 7.84e-4 0.010432 0.06984996 7.84e-4 0.010432 0.06984996 -9.54e-4 0.01118296 0.06984996 -9.54e-4 0.01118296 0.06984996 -9.54e-4 0.01118296 0.06984996 -0.001884996 0.01118296 0.06984996 -0.001884996 0.01118296 0.06984996 -0.001884996 0.01118296 0.06984996 -0.001884996 0.01594996 0.06984996 -0.001884996 0.01594996 0.06984996 -0.001884996 0.01594996 0.06984996 0.007349967 0.01594996 0.06984996 0.007349967 0.01594996 0.06984996 0.007349967 0.01594996 0.06984996 0.007349967 -0.009449958 0.06984996 0.007349967 -0.009449958 0.06984996 0.007349967 -0.009449958 0.06984996 -0.001884996 -0.009449958 0.06984996 -0.001884996 -0.009449958 0.06984996 -0.001884996 -0.009449958 0.06984996 -0.001884996 -0.004682958 0.06984996 -0.001884996 -0.004682958 0.06984996 -0.001884996 -0.004682958 0.06984996 -9.54e-4 -0.004682958 0.06984996 -9.54e-4 -0.004682958 0.06984996 -9.54e-4 -0.004682958 0.06984996 7.84e-4 -0.003932952 0.06984996 7.84e-4 -0.003932952 0.06984996 7.84e-4 -0.003932952 0.06984996 0.001296997 -0.003345966 0.06984996 0.001296997 -0.003345966 0.06984996 0.001296997 -0.003345966 0.06984996 0.00140798 -0.003205955 0.06984996 0.00140798 -0.003205955 0.06984996 0.00140798 -0.003205955 0.06984996 0.01941698 -0.006779968 0.009385943 0.01941698 -0.006779968 0.009385943 0.01941698 -0.006779968 0.009385943 0.01941698 -0.006779968 0.01441097 0.01941698 -0.006779968 0.01441097 0.01941698 -0.006779968 0.01441097 0.01941698 0.01283198 0.01441097 0.01941698 0.01283198 0.01441097 0.01941698 0.01283198 0.01441097 0.01941698 0.01283198 0.009525001 0.01941698 0.01283198 0.009525001 0.01941698 0.01283198 0.009525001 0.01941698 0.01273 0.009385943 0.01941698 0.01273 0.009385943 0.01941698 0.01273 0.009385943 0.01408696 0.01283198 0.04313296 0.01408696 0.01283198 0.04313296 0.01408696 0.01283198 0.04313296 0.007349967 0.01283198 0.061746 0.007349967 0.01283198 0.061746 0.007349967 0.01283198 0.061746 0.007349967 0.01283198 0.04463195 0.007349967 0.01283198 0.04463195 0.007349967 0.01283198 0.04463195 0.007349967 0.01283198 0.04463195 0.007349967 0.01283198 0.04463195 0.007349967 0.01283198 0.02222496 0.007349967 0.01283198 0.02222496 0.007349967 0.01283198 0.02222496 -0.001884996 0.01283198 0.014476 -0.001884996 0.01283198 0.014476 -0.001884996 0.01283198 0.014476 -0.001884996 0.01283198 0.009525001 -0.001884996 0.01283198 0.009525001 -0.001884996 0.01283198 0.009525001 0.007349967 0.01594996 0.05079996 0.007349967 0.01594996 0.05079996 0.007349967 0.01594996 0.05079996 0.007349967 -0.009449958 0.061746 0.007349967 -0.009449958 0.061746 0.007349967 -0.009449958 0.061746 0.007349967 -0.009449958 0.061746 0 0.01594996 0.05079996 0 0.01594996 0.05079996 0 0.01594996 0.05079996 -0.001884996 0.01594996 0.05238199 -0.001884996 0.01594996 0.05238199 -0.001884996 0.01594996 0.05238199 -0.001884996 -1.8e-4 0.014476 -0.001884996 -1.8e-4 0.014476 -0.001884996 -1.8e-4 0.014476 -0.001884996 -0.009449958 0.05238199 -0.001884996 -0.009449958 0.05238199 -0.001884996 -0.009449958 0.05238199 -0.001884996 -0.004682958 0.05238199 -0.001884996 -0.004682958 0.05238199 -0.001884996 -0.004682958 0.05238199 -0.001884996 0.01118296 0.05238199 -0.001884996 0.01118296 0.05238199 -0.001884996 0.01118296 0.05238199 -0.006026983 -0.006016969 0.01099997 -0.006026983 -0.006016969 0.01099997 -0.006026983 -0.006016969 0.01099997 -0.006746947 -0.007030963 0.01099997 -0.006746947 -0.007030963 0.01099997 -0.006746947 -0.007030963 0.01099997 0.01087796 -0.00634998 0.04463195 0.01087796 -0.00634998 0.04463195 0.01087796 -0.00634998 0.04463195 0.01087796 -0.00634998 0.04463195 0.007349967 -0.00634998 0.04463195 0.007349967 -0.00634998 0.04463195 0.007349967 -0.00634998 0.04463195 0.007349967 -0.00634998 0.04463195 0 -0.009449958 0.05079996 0 -0.009449958 0.05079996 0 -0.009449958 0.05079996 0.007349967 -0.009449958 0.05079996 0.007349967 -0.009449958 0.05079996 0.007349967 -0.009449958 0.05079996 0.01354396 -0.00634998 0.04463195 0.01354396 -0.00634998 0.04463195 0.01354396 -0.00634998 0.04463195 0.01408696 -0.006733953 0.04313296 0.01408696 -0.006733953 0.04313296 0.01408696 -0.006733953 0.04313296 0.01586496 -0.009189963 0.03354799 0.01586496 -0.009189963 0.03354799 0.01586496 -0.009189963 0.03354799 0.007349967 -0.01496899 0.01099795 0.007349967 -0.01496899 0.01099795 0.007349967 -0.01496899 0.01099795 -0.006027996 -0.01496899 0.01099997 -0.006027996 -0.01496899 0.01099997 -0.006027996 -0.01496899 0.01099997 -0.006027996 -0.01496899 0.01099997 0.007349967 -0.01209199 0.02222496 0.007349967 -0.01209199 0.02222496 0.007349967 -0.01209199 0.02222496 0.01087796 -0.00634998 0.05199694 0.01087796 -0.00634998 0.05199694 0.01087796 -0.00634998 0.05199694 -9.54e-4 0.01118296 0.05160099 -9.54e-4 0.01118296 0.05160099 -9.54e-4 0.01118296 0.05160099 7.84e-4 0.010432 0.05014199 7.84e-4 0.010432 0.05014199 7.84e-4 0.010432 0.05014199 0.001306951 0.009832978 0.049703 0.001306951 0.009832978 0.049703 0.001306951 0.009832978 0.049703 0.001394987 0.009722948 0.04962998 0.001394987 0.009722948 0.04962998 0.001394987 0.009722948 0.04962998 0.001931965 0.008973956 0.04917895 0.001931965 0.008973956 0.04917895 0.001931965 0.008973956 0.04917895 0.002156972 0.00861299 0.04898995 0.002156972 0.00861299 0.04898995 0.002156972 0.00861299 0.04898995 0.003166973 0.00634098 0.04814195 0.003166973 0.00634098 0.04814195 0.003166973 0.00634098 0.04814195 0.003633975 0.003249943 0.04775094 0.003633975 0.003249943 0.04775094 0.003633975 0.003249943 0.04775094 0.003158986 1.33e-4 0.04814898 0.003158986 1.33e-4 0.04814898 0.003158986 1.33e-4 0.04814898 0.002142965 -0.002135992 0.04900199 0.002142965 -0.002135992 0.04900199 0.002142965 -0.002135992 0.04900199 0.001940965 -0.002459943 0.04917097 0.001940965 -0.002459943 0.04917097 0.001940965 -0.002459943 0.04917097 0.00140798 -0.003205955 0.04961794 0.00140798 -0.003205955 0.04961794 0.00140798 -0.003205955 0.04961794 0.001296997 -0.003345966 0.049712 0.001296997 -0.003345966 0.049712 0.001296997 -0.003345966 0.049712 7.84e-4 -0.003932952 0.05014199 7.84e-4 -0.003932952 0.05014199 7.84e-4 -0.003932952 0.05014199 -9.54e-4 -0.004682958 0.05160099 -9.54e-4 -0.004682958 0.05160099 -9.54e-4 -0.004682958 0.05160099 -0.02099996 -0.01496899 0.01099997 -0.02099996 -0.01496899 0.01099997 -0.02099996 -0.01496899 0.01099997 -0.02099996 -0.007030963 0.01099997 -0.02099996 -0.007030963 0.01099997 -0.02099996 -0.007030963 0.01099997 0.001940965 -0.002459943 0.06984698 0.001940965 -0.002459943 0.06984698 0.001940965 -0.002459943 0.06984698 0.001940965 -0.002459943 0.06984698 0.002142965 -0.002135992 0.06984698 0.002142965 -0.002135992 0.06984698 0.002142965 -0.002135992 0.06984698 0.002142965 -0.002135992 0.06984698 0.003158986 1.33e-4 0.06985199 0.003158986 1.33e-4 0.06985199 0.003158986 1.33e-4 0.06985199 0.003158986 1.33e-4 0.06985199 0.003633975 0.003249943 0.069853 0.003633975 0.003249943 0.069853 0.003633975 0.003249943 0.069853 0.003633975 0.003249943 0.069853 0.003166973 0.00634098 0.06985998 0.003166973 0.00634098 0.06985998 0.003166973 0.00634098 0.06985998 0.003166973 0.00634098 0.06985998 0.002156972 0.00861299 0.06984996 0.002156972 0.00861299 0.06984996 0.002156972 0.00861299 0.06984996 0.001931965 0.008973956 0.069848 0.001931965 0.008973956 0.069848 0.001931965 0.008973956 0.069848 0.001931965 0.008973956 0.069848 0.002149999 0.008623957 0.06984895 0.002149999 0.008623957 0.06984895 0.002149999 0.008623957 0.06984895 0.003238976 0.006859958 0.07302498 0.003238976 0.006859958 0.07302498 0.003238976 0.006859958 0.07302498 0.00338298 0.006768941 0.07302498 0.00338298 0.006768941 0.07302498 0.00338298 0.006768941 0.07302498 0.00456798 0.004985988 0.07302498 0.00456798 0.004985988 0.07302498 0.00456798 0.004985988 0.07302498 0.004923999 0.002949953 0.07302498 0.004923999 0.002949953 0.07302498 0.004923999 0.002949953 0.07302498 0.004589974 0.001528978 0.07302498 0.004589974 0.001528978 0.07302498 0.004589974 0.001528978 0.07302498 0.003381967 -2.88e-4 0.07302498 0.003381967 -2.88e-4 0.07302498 0.003381967 -2.88e-4 0.07302498 0.003232955 -3.82e-4 0.07302498 0.003232955 -3.82e-4 0.07302498 0.003232955 -3.82e-4 0.07302498 0.003427982 5.4e-5 0.07302498 0.003427982 5.4e-5 0.07302498 0.003427982 5.4e-5 0.07302498 0.003913998 0.003247976 0.07302498 0.003913998 0.003247976 0.07302498 0.003913998 0.003247976 0.07302498 0.003435969 0.006415963 0.07302498 0.003435969 0.006415963 0.07302498 0.003435969 0.006415963 0.07302498 0.002317965 0.008714973 0.07203 0.002317965 0.008714973 0.07203 0.002317965 0.008714973 0.07203 0.002021968 0.009033977 0.07108896 0.002021968 0.009033977 0.07108896 0.002021968 0.009033977 0.07108896 0.00208497 0.008984982 0.07140296 0.00208497 0.008984982 0.07140296 0.00208497 0.008984982 0.07140296 0.002242982 0.008826971 0.07197898 0.002242982 0.008826971 0.07197898 0.002242982 0.008826971 0.07197898 0.002310991 -0.002228975 0.072039 0.002310991 -0.002228975 0.072039 0.002310991 -0.002228975 0.072039 0.002221941 -0.002362966 0.07197898 0.002221941 -0.002362966 0.07197898 0.002221941 -0.002362966 0.07197898 0.002098977 -0.002484977 0.07153397 0.002098977 -0.002484977 0.07153397 0.002098977 -0.002484977 0.07153397 0.002042949 -0.002528965 0.071258 0.002042949 -0.002528965 0.071258 0.002042949 -0.002528965 0.071258 0.004196941 -0.001124978 0.07197898 0.004196941 -0.001124978 0.07197898 0.004196941 -0.001124978 0.07197898 0.004196941 -0.001124978 0.07197898 0.005653977 0.001067996 0.07197898 0.005653977 0.001067996 0.07197898 0.005653977 0.001067996 0.07197898 0.005653977 0.001067996 0.07197898 0.006087958 0.002915978 0.07197898 0.006087958 0.002915978 0.07197898 0.006087958 0.002915978 0.07197898 0.006087958 0.002915978 0.07197898 0.005650997 0.005418956 0.07197898 0.005650997 0.005418956 0.07197898 0.005650997 0.005418956 0.07197898 0.005650997 0.005418956 0.07197898 0.004196941 0.007606983 0.07197898 0.004196941 0.007606983 0.07197898 0.004196941 0.007606983 0.07197898 0.004196941 0.007606983 0.07197898</float_array>
          <technique_common>
            <accessor source="#imetro_finger_v2_m_col-mesh-positions-array" count="352" stride="3">
              <param name="X" type="float"/>
              <param name="Y" type="float"/>
              <param name="Z" type="float"/>
            </accessor>
          </technique_common>
        </source>
        <source id="imetro_finger_v2_m_col-mesh-normals">
          <float_array id="imetro_finger_v2_m_col-mesh-normals-array" count="801">0 0 -1 0 0.8045482 -0.5938875 0.766036 0 -0.6427978 -1.16616e-5 0.8045423 -0.5938954 -1.15377e-5 0.8045424 -0.5938954 -1.16145e-5 0.8045424 -0.5938954 -1 0 0 0 0.8045482 -0.5938874 -0.8155072 0.5787471 0 -0.8155328 0.578711 0 -0.8153603 0.5789539 1.93735e-4 0 1 0 0 -1 0 0.5615161 -0.8274659 3.27534e-5 0.5615333 -0.8274542 0 3.68067e-5 0 1 0.310209 -0.946668 0.08712136 0.3102091 -0.946668 0.08712136 0.310209 -0.946668 0.0871213 -0.8137945 0.5811527 0 -0.8137945 0.5811527 0 -0.8137945 0.5811527 0 -0.8138329 0.581099 2.31494e-6 -0.8138329 0.581099 2.33509e-6 -0.8138329 0.581099 2.33403e-6 -0.8107909 0.5788466 0.08691781 -5.90303e-5 0 1 0.5288081 -0.8442232 0.08746135 0.3101779 -0.9466746 0.08716046 0.310178 -0.9466746 0.08716028 0.310178 -0.9466746 0.08716034 -6.1028e-6 0 1 0.8297764 -0.5512245 0.08730769 0 0 1 -8.18354e-5 0 1 1.50565e-4 0 1 0.5288998 -0.8442002 0.08712762 0.5288998 -0.8442001 0.08712756 0.5288998 -0.8442001 0.08712756 0.5288977 -0.8442015 0.08712774 0.5288977 -0.8442015 0.08712774 0.5288977 -0.8442015 0.08712774 2.29208e-5 0 1 0.969783 -0.2278572 0.08719038 0.969783 -0.2278572 0.08719033 0.969783 -0.2278572 0.08719033 0.8297531 -0.5512714 0.08723366 0.9697984 -0.2277561 0.08728355 -1.68597e-5 0 1 0.9812798 0.1717662 0.0871005 0.9812797 0.1717662 0.0871005 0.9812797 0.1717662 0.0871005 4.27545e-6 0 1 4.57064e-6 0 1 0.8297926 0.5512314 0.08711075 0.9813446 0.1713343 0.08722013 -1.31878e-6 0 1 0.5276415 0.8449934 0.08706748 0.5276414 0.8449934 0.08706748 0.5276415 0.8449934 0.08706748 0.8296893 0.5513554 0.08731019 -3.17506e-6 0 1 0.3099015 0.9467667 0.08714312 0.3099015 0.9467667 0.08714318 0.3099015 0.9467667 0.08714318 0.3099237 0.9467583 0.08715629 0.3099237 0.9467582 0.08715617 0.3099237 0.9467583 0.08715623 0.5276286 0.8449929 0.08715122 0.5276286 0.8449929 0.08715128 0.5276286 0.8449929 0.08715122 0.5275925 0.8450158 0.08714669 -8.68797e-6 0 1 -0.812756 -0.5826044 0 -0.812756 -0.5826044 0 -0.812756 -0.5826044 0 -0.8126529 -0.5827482 -7.27165e-6 -0.8126528 -0.5827482 -7.28204e-6 -0.8126528 -0.5827482 -7.25866e-6 -0.809661 -0.5803922 0.08714461 -0.809661 -0.5803922 0.08714461 -0.809661 -0.5803922 0.08714461 3.32645e-5 0 1 -0.7821232 -0.6231238 0 -0.7821232 -0.6231238 0 -0.7821232 -0.6231238 0 -0.7820934 -0.6231613 0 -0.7820934 -0.6231613 0 -0.7820934 -0.6231613 0 -0.7532775 -0.6577029 0 -0.753278 -0.6577023 0 -2.00421e-6 0 1 -0.3966585 -0.9179663 0 -0.3966587 -0.9179663 0 1 0 0 1 -1.22495e-7 0 -0.3962134 0.9181585 0 -0.3962135 0.9181584 0 -0.7529737 0.6580506 0 -0.7529739 0.6580505 0 -0.7823095 0.62289 0 -0.7823095 0.62289 0 -0.7823095 0.62289 0 -0.7823398 0.622852 0 -0.7823397 0.622852 0 -0.7823398 0.622852 0 0.5615333 -0.8274542 0 0.9832139 0 0.1824569 1 4.51296e-6 0 0.9832084 -4.46734e-5 0.1824866 0.5615293 -0.8274569 1.99034e-5 0 1 0 0 1 -1.75674e-7 0.9403013 0 0.3403434 0.9403294 -7.30811e-5 0.3402658 0.940214 0 0.3405845 0.9402919 -1.90075e-5 0.3403692 0.9832269 0 0.1823867 0 0.8924508 -0.4511449 -0.6428574 -1.32755e-4 -0.765986 -0.6428428 -5.06912e-5 -0.7659983 -0.6427931 0 -0.7660399 -0.6428813 2.86241e-4 -0.7659657 -0.6428435 1.12794e-4 -0.7659976 -0.6427831 -1.71226e-5 -0.7660483 -0.6427829 -1.70437e-5 -0.7660484 -0.6427832 -1.71112e-5 -0.7660482 -0.6429452 2.23643e-4 -0.7659122 -0.6429588 2.49629e-4 -0.7659008 -0.6428826 9.92495e-5 -0.7659649 -0.6427835 0 0.766048 -0.6428089 -3.34501e-5 0.7660266 -0.6427834 0 0.766048 0 1 -1.25149e-6 0.6600709 -0.7512032 0 -0.6426895 0 -0.7661268 -0.642858 0 -0.7659854 0 -1 -6.25743e-7 -0.6428305 1.90867e-5 -0.7660084 -0.6427841 5.46364e-5 -0.7660474 -0.6427841 5.46307e-5 -0.7660475 -0.6427841 5.46295e-5 -0.7660475 3.38709e-6 0 1 -0.6427809 7.17913e-5 0.7660503 0 -0.8934983 -0.4490668 0 -0.9686991 0.2482381 0.6600711 -0.7512032 0 0 -0.9686992 0.2482379 0 -0.8934982 -0.4490669 -0.6428213 -1.85414e-5 -0.7660161 -0.6428214 -1.84697e-5 -0.7660161 -0.6428213 -1.84968e-5 -0.7660161 -0.6427129 1.20856e-4 -0.7661072 -0.6428927 -7.80764e-5 -0.7659564 -0.6427664 5.68224e-5 -0.7660624 -0.6427664 5.68283e-5 -0.7660624 -0.6427664 5.68461e-5 -0.7660624 -0.6427335 1.85239e-4 -0.7660899 -0.6427949 -2.1297e-5 -0.7660385 -0.6427947 -2.13385e-5 -0.7660385 -0.6427946 -2.1399e-5 -0.7660387 -0.6427648 1.56904e-4 -0.7660636 -0.6427648 1.56901e-4 -0.7660637 -0.6427649 1.56906e-4 -0.7660636 -0.6428813 -2.8552e-4 -0.7659658 1.3274e-4 -0.9687079 0.2482039 6.06815e-5 -0.9687024 0.2482253 4.54163e-5 -0.9686996 0.2482363 3.71194e-5 -0.9686996 0.2482362 -0.8127056 -0.5826745 0 -0.848658 -0.5289419 0 -0.8485056 -0.5291866 -7.88074e-7 -0.8485055 -0.5291866 -5.17524e-7 -0.8485056 -0.5291865 -7.20203e-7 -0.848562 -0.5290961 0 -0.848562 -0.5290961 0 -0.848562 -0.5290961 0 -0.9137784 -0.406213 0 -0.9137784 -0.4062132 0 -0.9888287 -0.1490566 0 -0.9888287 -0.1490566 0 -0.9888287 -0.1490566 0 -0.9887785 -0.1493887 0 -0.9885872 0.1506506 0 -0.988587 0.150651 0 -0.9126801 0.4086749 0 -0.8482316 0.5296257 0 -0.8482316 0.5296257 0 -0.8482316 0.5296257 0 -0.8481801 0.5297082 0 -0.8481801 0.5297082 0 -0.8481801 0.5297082 0 -0.9126802 0.4086744 0 -0.8138549 0.5810683 0 -0.8138548 0.5810683 0 -0.8138549 0.5810684 0 -0.8450808 0.5274941 0.08711248 -0.8450807 0.5274941 0.08711248 -0.8450807 0.5274941 0.08711248 -0.9092944 0.4069673 0.08695685 -0.8450298 0.5275685 0.08715593 -0.8450298 0.5275686 0.08715569 -0.8450298 0.5275686 0.08715617 -0.8450249 0.5275763 0.08715558 -0.8450249 0.5275763 0.08715575 -0.845025 0.5275764 0.0871554 -0.8450223 0.5275807 0.08715629 -0.8450223 0.5275807 0.08715623 -0.8450223 0.5275807 0.08715629 -0.9848405 0.1500517 0.08702856 -0.9092492 0.4070225 0.08717066 -0.9092491 0.4070225 0.08717066 -0.9092493 0.4070225 0.08717066 -0.9091436 0.4072308 0.08729922 -0.9848529 0.1498554 0.08722466 -0.984979 -0.1490117 0.08724623 -0.9850707 -0.1486307 0.08686059 -0.9102627 -0.4047502 0.08717316 -0.9102628 -0.4047503 0.08717316 -0.9102627 -0.4047504 0.08717316 -0.910179 -0.4049853 0.08695477 -0.9102756 -0.4047241 0.08716005 -0.910258 -0.4047648 0.08715504 -0.9102758 -0.4047242 0.08715748 -0.8453319 -0.5270901 0.08712077 -0.8453319 -0.5270901 0.08712077 -0.8453319 -0.5270901 0.08712077 -0.8453628 -0.5270283 0.08719462 -0.8453628 -0.5270283 0.08719468 -0.8453628 -0.5270283 0.08719468 3.95353e-5 0 1 0.3577795 0.5730685 0.7372831 0.3577794 0.5730687 0.7372831 0.3577792 0.5730686 0.7372832 -0.91027 -0.4047259 0.08721083 -0.9102701 -0.4047254 0.08721077 -0.9102701 -0.4047257 0.08721077 0.5628542 0.3738844 0.7371605 0.5628543 0.3738845 0.7371605 0.357821 0.5728737 0.7374144 0.6655277 0.11637 0.7372456 0.5626386 0.3738948 0.7373199 0.6575974 -0.1543474 0.7373891 0.6575974 -0.1543474 0.737389 0.6575974 -0.1543474 0.737389 0.6657487 0.1162323 0.7370677 8.83128e-5 0 1 0.5626649 -0.3740757 0.737208 0.6577914 -0.1544797 0.7371883 7.80113e-5 0 1 0.3587304 -0.5724712 0.7372851 0.3587304 -0.5724712 0.7372851 0.3587303 -0.5724712 0.7372852 0.5625785 -0.373772 0.737428 0.3586305 -0.5725918 0.7372401 -0.8454154 -0.5269303 0.08727759 -0.8454154 -0.5269303 0.08727759 -0.8454154 -0.5269303 0.08727765 -0.8453365 -0.5270682 0.0872091 -0.8453365 -0.5270683 0.08720916 -0.8453364 -0.5270683 0.08720904 0.3577975 0.573086 0.7372607 0.3577975 0.573086 0.7372608 0.3577978 0.5730859 0.7372608 0.3586955 -0.5724964 0.7372825 0.3586952 -0.5724968 0.7372824 0.3586951 -0.5724968 0.7372823</float_array>
          <technique_common>
            <accessor source="#imetro_finger_v2_m_col-mesh-normals-array" count="267" stride="3">
              <param name="X" type="float"/>
              <param name="Y" type="float"/>
              <param name="Z" type="float"/>
            </accessor>
          </technique_common>
        </source>
        <source id="imetro_finger_v2_m_col-mesh-map-0">
          <float_array id="imetro_finger_v2_m_col-mesh-map-0-array" count="1308">0 0 1 0 0.712205 0 0.736178 0.254306 0.712205 0 1 0 0.391783 0 0 0 0.712205 0 0.453487 0 0.391783 0 0.712205 0 0.549633 0.280299 0.453487 0 0.712205 0 0.735433 0.251514 0.549633 0.280299 0.712205 0 0.735433 0.251514 0.712205 0 0.736178 0.254306 0 0.943197 1 0 0 0 0.965866 0.414688 0.736178 0.254306 1 0 0 0.943197 0.965866 0.414688 1 0 0.391783 0 0.144139 0 0 0 0.144139 0.553743 0 0 0.144139 0 0.139785 0.597025 0 0.943197 0 0 0.144139 0.553743 0.139785 0.597025 0 0 0.106272 0 0.04620897 0 0.144139 0 0.144139 0.553743 0.144139 0 0.04620897 0 0.391783 0 0.106272 0 0.144139 0 0.106272 0.263944 0.04620897 0 0.106272 0 0.04620897 0.301808 0.144139 0.553743 0.04620897 0 0.04620897 0.301808 0.04620897 0 0.106272 0.263944 0.106272 0.263944 0.106272 0 0.391783 0 0.549633 0.280299 0.391783 0 0.453487 0 0.391783 0.381695 0.391783 0 0.549633 0.280299 0.221595 0.391683 0.391783 0 0.391783 0.381695 0.106272 0.263944 0.391783 0 0.221595 0.391683 0.383138 0.995551 0.439145 0.996533 0.412371 0.997839 0.437041 0.998494 0.412371 0.997839 0.439145 0.996533 0.383138 0.982217 0.383138 0.995551 0.412371 0.997839 0.434704 0.998994 0.383138 0.982217 0.412371 0.997839 0.437041 0.998494 0.434704 0.998994 0.412371 0.997839 0.383138 0.995551 0.560269 0.986133 0.439145 0.996533 0.441451 0.998592 0.439145 0.996533 0.560269 0.986133 0.437041 0.998494 0.439145 0.996533 0.441451 0.998592 0.433273 0.917218 0.65198 0.973066 0.560269 0.986133 0.564652 0.988871 0.560269 0.986133 0.65198 0.973066 0.259303 0.938596 0.433273 0.917218 0.560269 0.986133 0.339141 0.990801 0.259303 0.938596 0.560269 0.986133 0.374216 0.994742 0.339141 0.990801 0.560269 0.986133 0.383138 0.995551 0.374216 0.994742 0.560269 0.986133 0.441451 0.998592 0.560269 0.986133 0.452256 0.998867 0.564652 0.988871 0.452256 0.998867 0.560269 0.986133 0.433273 0.917218 0.705792 0.963694 0.65198 0.973066 0.708343 0.967123 0.65198 0.973066 0.705792 0.963694 0.65562 0.976118 0.564652 0.988871 0.65198 0.973066 0.708343 0.967123 0.65562 0.976118 0.65198 0.973066 0.848725 0.867088 0.770953 0.953634 0.705792 0.963694 0.708343 0.967123 0.705792 0.963694 0.770953 0.953634 0.433273 0.917218 0.848725 0.867088 0.705792 0.963694 0.848725 0.867088 0.832898 0.945635 0.770953 0.953634 0.772762 0.957414 0.770953 0.953634 0.832898 0.945635 0.772762 0.957414 0.708343 0.967123 0.770953 0.953634 0.848725 0.867088 0.889423 0.941161 0.832898 0.945635 0.834047 0.949705 0.832898 0.945635 0.889423 0.941161 0.834047 0.949705 0.772762 0.957414 0.832898 0.945635 0.848725 0.867088 0.898533 0.940741 0.889423 0.941161 0.891636 0.943565 0.889423 0.941161 0.898533 0.940741 0.890039 0.944243 0.889423 0.941161 0.891636 0.943565 0.885819 0.945948 0.889423 0.941161 0.890039 0.944243 0.834047 0.949705 0.889423 0.941161 0.885819 0.945948 0.848725 0.867088 0.907402 0.93688 0.898533 0.940741 0.907402 0.900424 0.898533 0.940741 0.907402 0.93688 0.893285 0.9428 0.898533 0.940741 0.907402 0.900424 0.891636 0.943565 0.898533 0.940741 0.893285 0.9428 0.848725 0.867088 0.909495 0.935988 0.907402 0.93688 0.909495 0.89938 0.907402 0.93688 0.909495 0.935988 0.907402 0.900424 0.907402 0.93688 0.909495 0.89938 0.848725 0.867088 0.921073 0.931014 0.909495 0.935988 0.921073 0.893683 0.909495 0.935988 0.921073 0.931014 0.909495 0.89938 0.909495 0.935988 0.921073 0.893683 0.848725 0.867088 0.953546 0.92404 0.921073 0.931014 0.953546 0.888128 0.921073 0.931014 0.953546 0.92404 0.921073 0.893683 0.921073 0.931014 0.953546 0.888128 0.848725 0.867088 0.97015 0.92297 0.953546 0.92404 0.97015 0.888758 0.953546 0.92404 0.97015 0.92297 0.953546 0.888128 0.953546 0.92404 0.97015 0.888758 0.848725 0.867088 0.960144 0.880385 0.97015 0.92297 0.960144 0.833572 0.97015 0.92297 0.960144 0.880385 0.97015 0.888758 0.97015 0.92297 0.960144 0.833572 0.848725 0.810441 0.960144 0.880385 0.848725 0.867088 0.960144 0.833572 0.960144 0.880385 0.848725 0.810441 0.830807 0.874453 0.848725 0.867088 0.433273 0.917218 0.848725 0.810441 0.848725 0.867088 0.830807 0.874453 0.259303 0.909243 0.433273 0.917218 0.259303 0.938596 0.433273 0.902967 0.830807 0.874453 0.433273 0.917218 0.259303 0.909243 0.433273 0.902967 0.433273 0.917218 0.258475 0.983617 0.2216359 0.981109 0.259303 0.938596 0.2216359 0.965442 0.259303 0.938596 0.2216359 0.981109 0.339141 0.990801 0.258475 0.983617 0.259303 0.938596 0.2216359 0.965442 0.259303 0.909243 0.259303 0.938596 0.258475 0.967876 0.2216359 0.981109 0.258475 0.983617 0.258475 0.967876 0.2216359 0.965442 0.2216359 0.981109 0.339141 0.976099 0.258475 0.983617 0.339141 0.990801 0.258475 0.967876 0.258475 0.983617 0.339141 0.976099 0.374216 0.981169 0.339141 0.990801 0.374216 0.994742 0.339141 0.976099 0.339141 0.990801 0.374216 0.981169 0.383138 0.982217 0.374216 0.994742 0.383138 0.995551 0.374216 0.981169 0.374216 0.994742 0.383138 0.982217 0.735433 0.251514 0.549633 0.400125 0.549633 0.280299 0.391783 0.381695 0.549633 0.280299 0.549633 0.400125 0.736178 0.254306 0.736178 0.36295 0.549633 0.400125 0.767578 0.75601 0.549633 0.400125 0.736178 0.36295 0.735433 0.251514 0.736178 0.254306 0.549633 0.400125 0.51129 0.700901 0.549633 0.400125 0.767578 0.75601 0.391783 0.381695 0.549633 0.400125 0.51129 0.700901 0.965866 0.550064 0.736178 0.36295 0.736178 0.254306 0.830807 0.643986 0.767578 0.75601 0.736178 0.36295 0.965866 0.550064 0.830807 0.643986 0.736178 0.36295 0.965866 0.414688 0.965866 0.550064 0.736178 0.254306 0.830807 0.818888 0.830807 0.874453 0.767578 0.75601 0.433273 0.902967 0.767578 0.75601 0.830807 0.874453 0.830807 0.643986 0.830807 0.818888 0.767578 0.75601 0.510616 0.872752 0.767578 0.75601 0.433273 0.902967 0.52733 0.800972 0.767578 0.75601 0.528857 0.816634 0.510616 0.872752 0.528857 0.816634 0.767578 0.75601 0.51129 0.700901 0.767578 0.75601 0.52733 0.800972 0.848725 0.810441 0.830807 0.874453 0.830807 0.818888 0.409978 0.657171 0.830807 0.818888 0.830807 0.643986 0.936291 0.829177 0.848725 0.810441 0.830807 0.818888 0.960144 0.833572 0.936291 0.829177 0.830807 0.818888 0.953546 0.888128 0.960144 0.833572 0.830807 0.818888 0.409978 0.657171 0.473272 0.888059 0.830807 0.818888 0.842347 0.932648 0.830807 0.818888 0.473272 0.888059 0.921073 0.893683 0.953546 0.888128 0.830807 0.818888 0.909495 0.89938 0.921073 0.893683 0.830807 0.818888 0.907402 0.900424 0.909495 0.89938 0.830807 0.818888 0.893285 0.907541 0.907402 0.900424 0.830807 0.818888 0.886523 0.91097 0.893285 0.907541 0.830807 0.818888 0.842347 0.932648 0.886523 0.91097 0.830807 0.818888 0 0.943197 0.830807 0.643986 0.965866 0.550064 0 0.943197 0.139785 0.597025 0.409978 0.657171 0.409978 0.657171 0.830807 0.643986 0 0.943197 0 0.943197 0.965866 0.550064 0.965866 0.414688 0.960144 0.833572 0.848725 0.810441 0.936291 0.829177 0.433273 0.876826 0.433273 0.902967 0.259303 0.909243 0.510616 0.872752 0.433273 0.902967 0.433273 0.876826 0.953546 0.888128 0.97015 0.888758 0.960144 0.833572 0.299225 0.907937 0.259303 0.909243 0.2216359 0.965442 0.433273 0.876826 0.259303 0.909243 0.299225 0.907937 0.299225 0.907937 0.2216359 0.965442 0.473272 0.888059 0.258475 0.967876 0.473272 0.888059 0.2216359 0.965442 0.221595 0.391683 0.139785 0.597025 0.144139 0.553743 0.409978 0.657171 0.139785 0.597025 0.221595 0.391683 0.04620897 0.301808 0.221595 0.391683 0.144139 0.553743 0.433273 0.876826 0.473272 0.888059 0.510616 0.84827 0.409978 0.657171 0.510616 0.84827 0.473272 0.888059 0.510616 0.872752 0.433273 0.876826 0.510616 0.84827 0.409978 0.657171 0.528857 0.816634 0.510616 0.84827 0.510616 0.872752 0.510616 0.84827 0.528857 0.816634 0.433273 0.876826 0.299225 0.907937 0.473272 0.888059 0.765733 0.96174 0.842347 0.932648 0.473272 0.888059 0.626296 0.985413 0.765733 0.96174 0.473272 0.888059 0.458822 0.987968 0.626296 0.985413 0.473272 0.888059 0.434704 0.986682 0.458822 0.987968 0.473272 0.888059 0.383138 0.982217 0.434704 0.986682 0.473272 0.888059 0.374216 0.981169 0.383138 0.982217 0.473272 0.888059 0.339141 0.976099 0.374216 0.981169 0.473272 0.888059 0.258475 0.967876 0.339141 0.976099 0.473272 0.888059 0.409978 0.657171 0.52733 0.800972 0.528857 0.816634 0.409978 0.657171 0.51129 0.700901 0.52733 0.800972 0.409978 0.657171 0.391783 0.381695 0.51129 0.700901 0.409978 0.657171 0.221595 0.391683 0.391783 0.381695 0.04620897 0.301808 0.106272 0.263944 0.221595 0.391683 0.893285 0.9428 0.907402 0.900424 0.893285 0.907541 0.886523 0.945573 0.893285 0.907541 0.886523 0.91097 0.88675 0.945483 0.893285 0.907541 0.886523 0.945573 0.88675 0.945483 0.893285 0.9428 0.893285 0.907541 0.842347 0.96215 0.886523 0.91097 0.842347 0.932648 0.886523 0.945573 0.886523 0.91097 0.842347 0.96215 0.765733 0.98273 0.842347 0.932648 0.765733 0.96174 0.842347 0.96215 0.842347 0.932648 0.765733 0.98273 0.626296 0.998729 0.765733 0.96174 0.626296 0.985413 0.765733 0.98273 0.765733 0.96174 0.626296 0.998729 0.626296 0.998729 0.626296 0.985413 0.458822 0.987968 0.434704 0.998994 0.458822 0.987968 0.434704 0.986682 0.458822 1 0.458822 0.987968 0.434704 0.998994 0.626296 0.998729 0.458822 0.987968 0.458822 1 0.434704 0.998994 0.434704 0.986682 0.383138 0.982217 0.437041 0.998494 0.458822 1 0.434704 0.998994 0.462134 0.999182 0.626296 0.998729 0.458822 1 0.452256 0.998867 0.462134 0.999182 0.458822 1 0.441451 0.998592 0.452256 0.998867 0.458822 1 0.437041 0.998494 0.441451 0.998592 0.458822 1 0.758218 0.982822 0.765733 0.98273 0.626296 0.998729 0.620946 0.997632 0.626296 0.998729 0.593896 0.999181 0.462134 0.999182 0.593896 0.999181 0.626296 0.998729 0.758218 0.982822 0.626296 0.998729 0.620946 0.997632 0.836578 0.963314 0.842347 0.96215 0.765733 0.98273 0.836578 0.963314 0.765733 0.98273 0.758218 0.982822 0.883561 0.946807 0.886523 0.945573 0.842347 0.96215 0.883561 0.946807 0.842347 0.96215 0.836578 0.963314 0.883561 0.946807 0.88675 0.945483 0.886523 0.945573 0.891636 0.943565 0.893285 0.9428 0.88675 0.945483 0.891636 0.943565 0.88675 0.945483 0.883561 0.946807 0.836578 0.963314 0.842307 0.960741 0.846842 0.960581 0.883561 0.946807 0.846842 0.960581 0.842307 0.960741 0.883561 0.946807 0.836578 0.963314 0.846842 0.960581 0.836578 0.963314 0.785896 0.967892 0.842307 0.960741 0.834047 0.949705 0.842307 0.960741 0.785896 0.967892 0.834047 0.949705 0.883561 0.946807 0.842307 0.960741 0.758218 0.982822 0.727217 0.976993 0.785896 0.967892 0.772762 0.957414 0.785896 0.967892 0.727217 0.976993 0.836578 0.963314 0.758218 0.982822 0.785896 0.967892 0.834047 0.949705 0.785896 0.967892 0.772762 0.957414 0.620946 0.997632 0.682962 0.985036 0.727217 0.976993 0.708343 0.967123 0.727217 0.976993 0.682962 0.985036 0.758218 0.982822 0.620946 0.997632 0.727217 0.976993 0.772762 0.957414 0.727217 0.976993 0.708343 0.967123 0.620946 0.997632 0.600515 0.997932 0.682962 0.985036 0.65562 0.976118 0.682962 0.985036 0.600515 0.997932 0.708343 0.967123 0.682962 0.985036 0.65562 0.976118 0.620946 0.997632 0.593896 0.999181 0.600515 0.997932 0.564652 0.988871 0.600515 0.997932 0.593896 0.999181 0.65562 0.976118 0.600515 0.997932 0.564652 0.988871 0.564652 0.988871 0.593896 0.999181 0.462134 0.999182 0.890039 0.944243 0.891636 0.943565 0.883561 0.946807 0.885819 0.945948 0.890039 0.944243 0.883561 0.946807 0.834047 0.949705 0.885819 0.945948 0.883561 0.946807 0.564652 0.988871 0.462134 0.999182 0.452256 0.998867</float_array>
          <technique_common>
            <accessor source="#imetro_finger_v2_m_col-mesh-map-0-array" count="654" stride="2">
              <param name="S" type="float"/>
              <param name="T" type="float"/>
            </accessor>
          </technique_common>
        </source>
        <vertices id="imetro_finger_v2_m_col-mesh-vertices">
          <input semantic="POSITION" source="#imetro_finger_v2_m_col-mesh-positions"/>
        </vertices>
        <triangles material="DEFAULT_MTL-material" count="218">
          <input semantic="VERTEX" source="#imetro_finger_v2_m_col-mesh-vertices" offset="0"/>
          <input semantic="NORMAL" source="#imetro_finger_v2_m_col-mesh-normals" offset="1"/>
          <input semantic="TEXCOORD" source="#imetro_finger_v2_m_col-mesh-map-0" offset="2" set="2"/>
          <p>6 0 0 3 0 1 0 0 2 106 1 3 1 1 4 5 1 5 18 0 6 6 0 7 0 0 8 21 0 9 18 0 10 0 0 11 96 2 12 22 2 13 2 2 14 109 2 15 96 2 16 2 2 17 108 3 18 1 4 19 106 5 20 143 6 21 4 6 22 7 6 23 129 7 24 106 7 25 5 7 26 143 6 27 128 6 28 4 6 29 18 0 30 9 0 31 6 0 32 158 8 33 8 8 34 10 8 35 155 9 36 144 9 37 8 9 38 158 10 39 155 10 40 8 10 41 15 0 42 12 0 43 9 0 44 160 11 45 11 11 46 13 11 47 18 0 48 15 0 49 9 0 50 243 6 51 14 6 52 16 6 53 246 11 54 160 11 55 13 11 56 247 6 57 14 6 58 243 6 59 244 12 60 17 12 61 20 12 62 97 13 63 19 13 64 23 13 65 185 14 66 19 14 67 97 14 68 190 12 69 20 12 70 186 12 71 244 12 72 20 12 73 190 12 74 92 15 75 28 15 76 24 15 77 331 16 78 27 17 79 29 18 80 232 19 81 94 20 82 25 21 83 248 22 84 232 23 85 25 24 86 330 25 87 251 25 88 26 25 89 92 26 90 31 26 91 28 26 92 328 27 93 30 27 94 32 27 95 331 28 96 29 29 97 327 30 98 74 31 99 34 31 100 31 31 101 333 32 102 33 32 103 35 32 104 77 33 105 74 33 106 31 33 107 86 33 108 77 33 109 31 33 110 89 34 111 86 34 112 31 34 113 92 35 114 89 35 115 31 35 116 328 36 117 32 37 118 324 38 119 332 39 120 324 40 121 32 41 122 74 42 123 37 42 124 34 42 125 340 43 126 36 44 127 38 45 128 336 46 129 333 46 130 35 46 131 340 47 132 337 47 133 36 47 134 71 48 135 40 48 136 37 48 137 341 49 138 39 50 139 41 51 140 74 52 141 71 52 142 37 52 143 71 53 144 43 53 145 40 53 146 345 54 147 42 54 148 44 54 149 344 55 150 341 55 151 41 55 152 71 56 153 46 56 154 43 56 155 349 57 156 45 58 157 47 59 158 348 60 159 345 60 160 44 60 161 71 61 162 49 61 163 46 61 164 312 62 165 48 63 166 51 64 167 316 65 168 48 66 169 312 67 170 318 68 171 47 69 172 315 70 173 349 71 174 47 71 175 318 71 176 71 72 177 53 72 178 49 72 179 207 73 180 50 74 181 54 75 182 272 76 183 50 77 184 207 78 185 313 79 186 52 80 187 274 81 188 71 82 189 56 82 190 53 82 191 204 83 192 55 84 193 57 85 194 208 86 195 55 87 196 204 88 197 71 33 198 59 33 199 56 33 200 201 89 201 58 89 202 60 89 203 205 90 204 58 90 205 201 90 206 71 91 207 62 91 208 59 91 209 198 92 210 61 92 211 63 92 212 202 93 213 61 93 214 198 93 215 71 33 216 65 33 217 62 33 218 154 12 219 64 12 220 67 12 221 199 12 222 64 12 223 154 12 224 71 33 225 68 33 226 65 33 227 141 6 228 66 6 229 70 6 230 152 6 231 66 6 232 141 6 233 131 11 234 69 11 235 73 11 236 140 11 237 69 11 238 131 11 239 114 94 240 72 94 241 75 94 242 130 95 243 72 95 244 114 95 245 148 12 246 76 12 247 79 12 248 133 94 249 114 94 250 75 94 251 148 12 252 136 12 253 76 12 254 83 33 255 80 33 256 77 33 257 149 6 258 78 6 259 81 6 260 86 33 261 83 33 262 77 33 263 149 6 264 146 6 265 78 6 266 240 11 267 82 11 268 84 11 269 240 11 270 151 11 271 82 11 272 237 96 273 85 96 274 87 96 275 241 97 276 85 97 277 237 97 278 234 98 279 88 98 280 90 98 281 238 99 282 88 99 283 234 99 284 231 100 285 91 101 286 93 102 287 235 103 288 91 104 289 231 105 290 107 94 291 98 94 292 95 94 293 185 106 294 97 106 295 100 106 296 104 94 297 101 94 298 98 94 299 111 107 300 99 107 301 103 107 302 107 108 303 104 108 304 98 108 305 182 109 306 99 109 307 111 109 308 185 110 309 100 110 310 183 110 311 124 11 312 102 11 313 105 11 314 121 111 315 110 111 316 102 111 317 124 112 318 121 112 319 102 112 320 127 11 321 124 11 322 105 11 323 116 11 324 113 11 325 110 11 326 134 113 327 112 113 328 115 113 329 121 11 330 116 11 331 110 11 332 194 114 333 112 114 334 134 114 335 180 115 336 112 115 337 176 115 338 194 116 339 176 116 340 112 116 341 182 117 342 111 117 343 179 117 344 130 94 345 114 94 346 117 94 347 192 6 348 120 6 349 122 6 350 138 118 351 132 118 352 118 118 353 142 119 354 139 119 355 119 119 356 197 120 357 142 120 358 119 120 359 192 6 360 168 6 361 120 6 362 215 121 363 119 121 364 167 121 365 200 122 366 197 122 367 119 122 368 203 123 369 200 123 370 119 123 371 206 124 372 203 125 373 119 126 374 209 127 375 206 127 376 119 127 377 212 128 378 209 128 379 119 128 380 215 129 381 212 129 382 119 129 383 145 130 384 123 130 385 126 130 386 145 131 387 156 131 388 193 131 389 193 132 390 123 132 391 145 132 392 143 6 393 125 6 394 128 6 395 140 133 396 131 133 397 137 133 398 174 12 399 136 12 400 148 12 401 196 134 402 135 134 403 173 134 404 197 135 405 153 135 406 142 135 407 170 136 408 147 136 409 150 136 410 174 137 411 148 137 412 171 137 413 170 138 414 150 138 415 167 138 416 239 139 417 167 140 418 150 141 419 189 142 420 157 142 421 159 142 422 193 143 423 156 143 424 188 143 425 245 33 426 189 33 427 159 33 428 172 144 429 165 144 430 161 144 431 191 145 432 162 145 433 166 145 434 196 146 435 173 146 436 164 146 437 191 147 438 175 147 439 162 147 440 195 12 441 163 12 442 177 12 443 172 148 444 169 148 445 165 148 446 218 149 447 215 150 448 167 151 449 221 152 450 218 152 451 167 152 452 224 153 453 221 153 454 167 153 455 227 154 456 224 155 457 167 156 458 230 157 459 227 157 460 167 157 461 233 158 462 230 159 463 167 160 464 236 161 465 233 162 466 167 163 467 239 164 468 236 164 469 167 164 470 191 165 471 178 165 472 175 165 473 191 166 474 181 166 475 178 166 476 191 167 477 184 167 478 181 167 479 191 168 480 187 168 481 184 168 482 245 33 483 242 33 484 189 33 485 272 169 486 207 169 487 211 169 488 269 170 489 210 170 490 214 170 491 275 171 492 210 172 493 269 173 494 275 174 495 271 175 496 210 176 497 265 177 498 213 177 499 217 177 500 268 178 501 213 178 502 265 178 503 261 179 504 216 180 505 220 181 506 264 182 507 216 182 508 261 182 509 257 183 510 219 183 511 223 183 512 260 184 513 219 184 514 257 184 515 256 185 516 222 185 517 226 185 518 249 186 519 225 187 520 229 188 521 252 189 522 225 190 523 249 191 524 256 192 525 226 192 526 253 192 527 248 193 528 228 194 529 232 195 530 329 196 531 255 197 532 250 198 533 320 199 534 259 199 535 254 199 536 323 200 537 321 201 538 255 202 539 326 203 540 323 204 541 255 205 542 329 206 543 326 207 544 255 208 545 304 209 546 263 209 547 258 209 548 301 210 549 259 211 550 297 212 551 320 213 552 297 213 553 259 213 554 304 214 555 258 214 556 300 214 557 307 215 558 267 215 559 262 215 560 307 216 561 262 216 562 303 216 563 309 217 564 270 218 565 266 219 566 309 220 567 266 220 568 306 220 569 309 221 570 277 222 571 270 223 572 311 224 573 273 225 574 276 226 575 311 227 576 276 228 577 308 229 578 305 230 579 281 230 580 278 230 581 310 231 582 280 232 583 282 233 584 309 234 585 306 235 586 279 236 587 305 33 588 284 33 589 281 33 590 351 237 591 283 237 592 285 238 593 350 239 594 310 239 595 282 239 596 302 33 597 287 33 598 284 33 599 347 240 600 286 240 601 288 240 602 305 33 603 302 33 604 284 33 605 351 241 606 285 241 607 346 241 608 299 33 609 290 33 610 287 33 611 343 242 612 289 243 613 291 244 614 302 33 615 299 33 616 287 33 617 347 245 618 288 245 619 342 245 620 299 246 621 293 246 622 290 246 623 339 247 624 292 247 625 294 247 626 343 248 627 291 248 628 338 248 629 299 249 630 296 249 631 293 249 632 335 250 633 295 251 634 298 252 635 339 253 636 294 253 637 334 253 638 335 254 639 298 254 640 322 254 641 314 255 642 311 256 643 308 257 644 317 258 645 314 259 646 308 260 647 350 261 648 319 262 649 310 263 650 335 264 651 322 265 652 325 266 653</p>
        </triangles>
      </mesh>
    </geometry>
  </library_geometries>
  <library_visual_scenes>
    <visual_scene id="Scene" name="Scene">
      <node id="imetro_finger_v2_m_col" name="imetro_finger_v2_m_col" type="NODE">
        <matrix sid="transform">1 0 0 0 0 1 0 0 0 0 1 0 0 0 0 1</matrix>
        <instance_geometry url="#imetro_finger_v2_m_col-mesh" name="imetro_finger_v2_m_col">
          <bind_material>
            <technique_common>
              <instance_material symbol="DEFAULT_MTL-material" target="#DEFAULT_MTL-material">
                <bind_vertex_input semantic="UVMap" input_semantic="TEXCOORD" input_set="0"/>
              </instance_material>
            </technique_common>
          </bind_material>
        </instance_geometry>
      </node>
    </visual_scene>
  </library_visual_scenes>
  <scene>
    <instance_visual_scene url="#Scene"/>
  </scene>
</COLLADA>